<svg xmlns="http://www.w3.org/2000/svg" version="1.1" xmlns:xlink="http://www.w3.org/1999/xlink" xmlns:svgjs="http://svgjs.dev/svgjs" width="5120" height="1440" preserveAspectRatio="none" viewBox="0 0 5120 1440"><g mask="url(&quot;#SvgjsMask1115&quot;)" fill="none"><rect width="5120" height="1440" x="0" y="0" fill="#1e3266" style="--darkreader-inline-fill: var(--darkreader-background-1e3266, #182852);" data-darkreader-inline-fill=""></rect><path d="M5205.333333333333 1440L0 1440 L0 922.7Q91.88 758.59, 256 850.47Q345.65 684.12, 512 773.77Q702.8 708.57, 768 899.36Q960.5 665.19, 1194.6666666666665 857.69Q1381.28 617.64, 1621.333333333333 804.25Q1826.56 582.81, 2047.9999999999995 788.04Q2309.88 623.26, 2474.666666666666 885.14Q2729.6 713.41, 2901.3333333333326 968.34Q3014.01 825.02, 3157.3333333333326 937.69Q3274.59 628.28, 3583.999999999999 745.53Q3732.99 638.52, 3839.999999999999 787.51Q4063.23 584.07, 4266.666666666666 807.3Q4501.64 615.61, 4693.333333333333 850.59Q4869.58 770.84, 4949.333333333333 947.08Q4965.53 707.28, 5205.333333333333 723.48z" fill="#182f5d" style="--darkreader-inline-fill: var(--darkreader-background-182f5d, #13264a);" data-darkreader-inline-fill=""></path><path d="M5461.333333333334 1440L0 1440 L0 1003.05Q88.73 835.77, 256 924.5Q394.46 806.96, 512 945.42Q650.39 827.81, 768 966.2Q948.55 890.75, 1024 1071.3Q1247.41 868.05, 1450.6666666666665 1091.46Q1532.28 917.08, 1706.6666666666665 998.69Q1974.91 840.27, 2133.333333333333 1108.51Q2229.72 948.89, 2389.333333333333 1045.28Q2450.77 850.71, 2645.333333333333 912.15Q2818.07 828.88, 2901.333333333333 1001.62Q3063.26 907.55, 3157.333333333333 1069.47Q3213.98 870.12, 3413.333333333333 926.77Q3566.55 823.99, 3669.333333333333 977.2Q3934.26 815.46, 4095.9999999999995 1080.38Q4201.98 930.36, 4352 1036.34Q4595.33 853.01, 4778.666666666667 1096.34Q4809.23 870.9, 5034.666666666667 901.47Q5282.66 722.8, 5461.333333333334 970.8z" fill="#25467d" style="--darkreader-inline-fill: var(--darkreader-background-25467d, #1e3864);" data-darkreader-inline-fill=""></path><path d="M5376 1440L0 1440 L0 1305.35Q43.49 1092.84, 256 1136.32Q527.94 981.6, 682.6666666666666 1253.54Q810.31 954.51, 1109.3333333333333 1082.15Q1401.72 947.87, 1536 1240.26Q1639.54 1087.8, 1792 1191.34Q2075.54 1048.22, 2218.6666666666665 1331.76Q2400.72 1087.15, 2645.333333333333 1269.2Q2679.58 1047.45, 2901.333333333333 1081.7Q3137.68 891.38, 3327.9999999999995 1127.72Q3569.47 942.52, 3754.666666666666 1183.99Q3844.29 1017.61, 4010.666666666666 1107.23Q4241.25 911.15, 4437.333333333333 1141.73Q4623.54 1071.93, 4693.333333333333 1258.14Q4873.07 1011.21, 5120 1190.94Q5203.07 1018.01, 5376 1101.07z" fill="#356cb1" style="--darkreader-inline-fill: var(--darkreader-background-356cb1, #2a568e);" data-darkreader-inline-fill=""></path><path d="M5376 1440L0 1440 L0 1456.95Q195.95 1226.23, 426.66666666666663 1422.18Q523.93 1263.45, 682.6666666666666 1360.71Q918.3 1169.68, 1109.3333333333333 1405.32Q1204.36 1244.35, 1365.3333333333333 1339.38Q1569.21 1116.59, 1792 1320.47Q1896.02 1168.49, 2048 1272.52Q2294.01 1091.87, 2474.6666666666665 1337.88Q2720.55 1157.1, 2901.333333333333 1402.98Q3099.48 1174.46, 3327.9999999999995 1372.61Q3532.46 1150.41, 3754.666666666666 1354.87Q3940.08 1113.62, 4181.333333333333 1299.04Q4459.68 1150.72, 4608 1429.07Q4699.77 1264.84, 4864 1356.6Q5039.41 1276.01, 5120 1451.41Q5274.78 1350.2, 5376 1504.98z" fill="white" style="--darkreader-inline-fill: var(--darkreader-background-ffffff, #181a1b);" data-darkreader-inline-fill=""></path></g><defs><mask id="SvgjsMask1115"><rect width="5120" height="1440" fill="#ffffff" style="--darkreader-inline-fill: var(--darkreader-text-ffffff, #e8e6e3);" data-darkreader-inline-fill=""></rect></mask></defs></svg>