<svg class="topography-shape js-shape" width="1200px" height="580px" viewBox="0 0 1200 580" version="1.1" xmlns="http://www.w3.org/2000/svg" xmlns:xlink="http://www.w3.org/1999/xlink">
      <path d="M734.567 34.372c-28.692 61.724-23.266 100.422 16.275 116.094 59.313 23.508 200.347 32.911 259.299 83.906 58.95 50.994 238.697 11.572 269.438-75.95C1310.32 70.9 1365.669-64 1073.808-64c-194.576 0-307.654 32.79-339.24 98.372h-.001z" fill="#FFFA72" fill-rule="nonzero" style="--darkreader-inline-fill: var(--darkreader-background-fffa72, #666200);" data-darkreader-inline-fill=""></path>
    <path d="M734.567 34.372c-28.692 61.724-23.266 100.422 16.275 116.094 59.313 23.508 200.347 32.911 259.299 83.906 58.95 50.994 238.697 11.572 269.438-75.95C1310.32 70.9 1365.669-64 1073.808-64c-194.576 0-307.654 32.79-339.24 98.372h-.001z" fill="#FFFA72" fill-rule="nonzero" style="--darkreader-inline-fill: var(--darkreader-text-060606, #e4e2de); position: relative; z-index: 0; fill: rgb(125, 125, 125);" data-darkreader-inline-fill="" transform="translate(-1800, 60) scale(2.8, 2.8) skewX(30) "></path><path d="M734.567 34.372c-28.692 61.724-23.266 100.422 16.275 116.094 59.313 23.508 200.347 32.911 259.299 83.906 58.95 50.994 238.697 11.572 269.438-75.95C1310.32 70.9 1365.669-64 1073.808-64c-194.576 0-307.654 32.79-339.24 98.372h-.001z" fill="#FFFA72" fill-rule="nonzero" style="--darkreader-inline-fill: var(--darkreader-text-0b0b0b, #e1dedb); position: relative; z-index: 1; fill: rgb(113, 113, 113);" data-darkreader-inline-fill="" transform="translate(-1650, 55) scale(2.65, 2.65) skewX(27.5) "></path><path d="M734.567 34.372c-28.692 61.724-23.266 100.422 16.275 116.094 59.313 23.508 200.347 32.911 259.299 83.906 58.95 50.994 238.697 11.572 269.438-75.95C1310.32 70.9 1365.669-64 1073.808-64c-194.576 0-307.654 32.79-339.24 98.372h-.001z" fill="#FFFA72" fill-rule="nonzero" style="--darkreader-inline-fill: var(--darkreader-text-111111, #dddad6); position: relative; z-index: 2; fill: rgb(102, 102, 102);" data-darkreader-inline-fill="" transform="translate(-1500, 50) scale(2.5, 2.5) skewX(25) "></path><path d="M734.567 34.372c-28.692 61.724-23.266 100.422 16.275 116.094 59.313 23.508 200.347 32.911 259.299 83.906 58.95 50.994 238.697 11.572 269.438-75.95C1310.32 70.9 1365.669-64 1073.808-64c-194.576 0-307.654 32.79-339.24 98.372h-.001z" fill="#FFFA72" fill-rule="nonzero" style="--darkreader-inline-fill: var(--darkreader-text-171717, #d9d6d1); position: relative; z-index: 3; fill: rgb(91, 91, 91);" data-darkreader-inline-fill="" transform="translate(-1350, 45) scale(2.3499999999999996, 2.3499999999999996) skewX(22.5) "></path><path d="M734.567 34.372c-28.692 61.724-23.266 100.422 16.275 116.094 59.313 23.508 200.347 32.911 259.299 83.906 58.95 50.994 238.697 11.572 269.438-75.95C1310.32 70.9 1365.669-64 1073.808-64c-194.576 0-307.654 32.79-339.24 98.372h-.001z" fill="#FFFA72" fill-rule="nonzero" style="--darkreader-inline-fill: var(--darkreader-text-1c1c1c, #d6d3cd); position: relative; z-index: 4; fill: rgb(79, 79, 79);" data-darkreader-inline-fill="" transform="translate(-1200, 40) scale(2.2, 2.2) skewX(20) "></path><path d="M734.567 34.372c-28.692 61.724-23.266 100.422 16.275 116.094 59.313 23.508 200.347 32.911 259.299 83.906 58.95 50.994 238.697 11.572 269.438-75.95C1310.32 70.9 1365.669-64 1073.808-64c-194.576 0-307.654 32.79-339.24 98.372h-.001z" fill="#FFFA72" fill-rule="nonzero" style="--darkreader-inline-fill: var(--darkreader-text-222222, #d3cfc9); position: relative; z-index: 5; fill: rgb(68, 68, 68);" data-darkreader-inline-fill="" transform="translate(-1050, 35) scale(2.05, 2.05) skewX(17.5) "></path><path d="M734.567 34.372c-28.692 61.724-23.266 100.422 16.275 116.094 59.313 23.508 200.347 32.911 259.299 83.906 58.95 50.994 238.697 11.572 269.438-75.95C1310.32 70.9 1365.669-64 1073.808-64c-194.576 0-307.654 32.79-339.24 98.372h-.001z" fill="#FFFA72" fill-rule="nonzero" style="--darkreader-inline-fill: var(--darkreader-text-282828, #cfcbc4); position: relative; z-index: 6; fill: rgb(57, 57, 57);" data-darkreader-inline-fill="" transform="translate(-900, 30) scale(1.9, 1.9) skewX(15) "></path><path d="M734.567 34.372c-28.692 61.724-23.266 100.422 16.275 116.094 59.313 23.508 200.347 32.911 259.299 83.906 58.95 50.994 238.697 11.572 269.438-75.95C1310.32 70.9 1365.669-64 1073.808-64c-194.576 0-307.654 32.79-339.24 98.372h-.001z" fill="#FFFA72" fill-rule="nonzero" style="--darkreader-inline-fill: var(--darkreader-text-2d2d2d, #ccc7c0); position: relative; z-index: 7; fill: rgb(45, 45, 45);" data-darkreader-inline-fill="" transform="translate(-750, 25) scale(1.75, 1.75) skewX(12.5) "></path><path d="M734.567 34.372c-28.692 61.724-23.266 100.422 16.275 116.094 59.313 23.508 200.347 32.911 259.299 83.906 58.95 50.994 238.697 11.572 269.438-75.95C1310.32 70.9 1365.669-64 1073.808-64c-194.576 0-307.654 32.79-339.24 98.372h-.001z" fill="#FFFA72" fill-rule="nonzero" style="--darkreader-inline-fill: var(--darkreader-text-333333, #c8c3bc); position: relative; z-index: 8; fill: rgb(34, 34, 34);" data-darkreader-inline-fill="" transform="translate(-600, 20) scale(1.6, 1.6) skewX(10) "></path><path d="M734.567 34.372c-28.692 61.724-23.266 100.422 16.275 116.094 59.313 23.508 200.347 32.911 259.299 83.906 58.95 50.994 238.697 11.572 269.438-75.95C1310.32 70.9 1365.669-64 1073.808-64c-194.576 0-307.654 32.79-339.24 98.372h-.001z" fill="#FFFA72" fill-rule="nonzero" style="--darkreader-inline-fill: var(--darkreader-text-393939, #c4bfb7); position: relative; z-index: 9; fill: rgb(23, 23, 23);" data-darkreader-inline-fill="" transform="translate(-450, 15) scale(1.45, 1.45) skewX(7.5) "></path><path d="M734.567 34.372c-28.692 61.724-23.266 100.422 16.275 116.094 59.313 23.508 200.347 32.911 259.299 83.906 58.95 50.994 238.697 11.572 269.438-75.95C1310.32 70.9 1365.669-64 1073.808-64c-194.576 0-307.654 32.79-339.24 98.372h-.001z" fill="#FFFA72" fill-rule="nonzero" style="--darkreader-inline-fill: var(--darkreader-text-3e3e3e, #c1bbb3); position: relative; z-index: 10; fill: rgb(11, 11, 11);" data-darkreader-inline-fill="" transform="translate(-300, 10) scale(1.3, 1.3) skewX(5) "></path><path d="M734.567 34.372c-28.692 61.724-23.266 100.422 16.275 116.094 59.313 23.508 200.347 32.911 259.299 83.906 58.95 50.994 238.697 11.572 269.438-75.95C1310.32 70.9 1365.669-64 1073.808-64c-194.576 0-307.654 32.79-339.24 98.372h-.001z" fill="#FFFA72" fill-rule="nonzero" style="--darkreader-inline-fill: var(--darkreader-text-444444, #bdb7af); position: relative; z-index: 11; fill: rgb(0, 0, 0);" data-darkreader-inline-fill="" transform="translate(-150, 5) scale(1.15, 1.15) skewX(2.5) "></path></svg>